<?xml version="1.0" encoding="utf-8"?>
<!-- Generator: Adobe Illustrator 26.1.0, SVG Export Plug-In . SVG Version: 6.00 Build 0)  -->
<svg version="1.1" id="Layer_1" xmlns="http://www.w3.org/2000/svg" xmlns:xlink="http://www.w3.org/1999/xlink" x="0px" y="0px"
	 viewBox="0 0 150 150" style="enable-background:new 0 0 150 150;" xml:space="preserve">
<style type="text/css">
	.st0{fill:#1D1E1C;}
	.st1{fill:#39A7DF;}
	.st2{fill:none;stroke:#39A7DF;stroke-width:0.9073;stroke-linecap:round;stroke-linejoin:round;stroke-miterlimit:10;}
	.st3{fill:none;stroke:#1E72B8;stroke-width:1.8797;stroke-linecap:round;stroke-linejoin:round;stroke-miterlimit:10;}
	.st4{fill:none;stroke:#39A7DF;stroke-width:1.9286;stroke-linecap:round;stroke-linejoin:round;stroke-miterlimit:10;}
	.st5{fill:none;stroke:#39A7DF;stroke-width:2.6824;stroke-miterlimit:10;}
	.st6{fill:none;stroke:#39A7DF;stroke-width:2.6824;stroke-linecap:round;stroke-linejoin:round;stroke-miterlimit:10;}
	.st7{fill:none;stroke:#1E72B8;stroke-width:2.6824;stroke-linecap:round;stroke-linejoin:round;stroke-miterlimit:10;}
	.st8{fill:none;stroke:#1E72B8;stroke-width:2.6824;stroke-miterlimit:10;}
</style>
<g>
	<path class="st0" d="M43.92,99.91c0,0.35-0.08,0.72-0.25,1.13c-0.16,0.4-0.42,0.8-0.77,1.19s-0.8,0.71-1.35,0.95
		s-1.18,0.37-1.91,0.37c-0.55,0-1.05-0.05-1.5-0.16s-0.86-0.28-1.23-0.51c-0.37-0.23-0.71-0.54-1.02-0.91
		c-0.28-0.34-0.51-0.73-0.71-1.15s-0.34-0.88-0.44-1.36c-0.1-0.48-0.15-0.99-0.15-1.54c0-0.88,0.12-1.67,0.37-2.36
		c0.24-0.7,0.59-1.29,1.05-1.79c0.46-0.49,0.99-0.87,1.6-1.13c0.61-0.26,1.27-0.39,1.96-0.39c0.85,0,1.6,0.18,2.26,0.53
		c0.66,0.35,1.17,0.79,1.52,1.31c0.35,0.52,0.53,1.01,0.53,1.47c0,0.25-0.09,0.48-0.26,0.67c-0.17,0.19-0.38,0.29-0.62,0.29
		c-0.27,0-0.47-0.07-0.61-0.2c-0.14-0.13-0.29-0.37-0.45-0.69c-0.28-0.54-0.6-0.95-0.97-1.21c-0.37-0.27-0.83-0.4-1.38-0.4
		c-0.87,0-1.56,0.35-2.08,1.04c-0.52,0.69-0.77,1.67-0.77,2.94c0,0.85,0.11,1.56,0.34,2.12c0.23,0.56,0.55,0.98,0.97,1.26
		c0.42,0.28,0.91,0.42,1.47,0.42c0.61,0,1.12-0.16,1.54-0.47c0.42-0.32,0.74-0.78,0.95-1.39c0.09-0.29,0.2-0.52,0.33-0.71
		c0.13-0.18,0.35-0.27,0.64-0.27c0.25,0,0.47,0.09,0.65,0.28C43.83,99.41,43.92,99.64,43.92,99.91z"/>
	<path class="st0" d="M48.15,102.2v-3.47L45.6,94.6c-0.22-0.37-0.38-0.66-0.47-0.87c-0.09-0.21-0.14-0.39-0.14-0.54
		c0-0.25,0.09-0.47,0.28-0.66c0.19-0.18,0.42-0.28,0.69-0.28c0.29,0,0.51,0.09,0.66,0.26c0.15,0.17,0.37,0.51,0.67,1.03l1.95,3.32
		l1.97-3.32c0.12-0.2,0.22-0.38,0.3-0.51c0.08-0.14,0.17-0.27,0.27-0.39c0.1-0.12,0.21-0.21,0.32-0.28c0.12-0.06,0.26-0.1,0.43-0.1
		c0.27,0,0.49,0.09,0.67,0.27c0.18,0.18,0.27,0.39,0.27,0.63c0,0.19-0.05,0.39-0.14,0.58c-0.09,0.19-0.24,0.46-0.46,0.8l-2.61,4.2
		v3.47c0,0.45-0.1,0.79-0.3,1.01c-0.2,0.22-0.45,0.33-0.76,0.33c-0.31,0-0.57-0.11-0.76-0.33C48.25,103,48.15,102.66,48.15,102.2z"
		/>
	<path class="st0" d="M59.39,103.37H56.2c-0.46,0-0.79-0.11-0.99-0.32c-0.2-0.22-0.3-0.56-0.3-1.03v-8.21c0-0.48,0.1-0.83,0.3-1.04
		c0.2-0.21,0.53-0.32,0.98-0.32h3.38c0.5,0,0.93,0.03,1.3,0.1s0.69,0.19,0.98,0.37c0.25,0.15,0.47,0.35,0.66,0.58
		s0.33,0.5,0.43,0.78c0.1,0.29,0.15,0.59,0.15,0.91c0,1.09-0.52,1.89-1.57,2.4c1.37,0.46,2.06,1.35,2.06,2.67
		c0,0.61-0.15,1.16-0.45,1.65c-0.3,0.49-0.7,0.85-1.21,1.08c-0.32,0.14-0.68,0.24-1.1,0.29C60.43,103.34,59.94,103.37,59.39,103.37z
		 M57.04,94.1v2.83h1.94c0.53,0,0.93-0.05,1.22-0.16c0.29-0.1,0.51-0.3,0.66-0.6c0.12-0.21,0.18-0.44,0.18-0.7
		c0-0.55-0.19-0.92-0.56-1.1c-0.38-0.18-0.95-0.27-1.72-0.27H57.04z M59.24,98.51h-2.2v3.19h2.27c1.43,0,2.14-0.54,2.14-1.62
		c0-0.55-0.19-0.95-0.56-1.2C60.53,98.64,59.97,98.51,59.24,98.51z"/>
	<path class="st0" d="M72.31,94.15h-4.77v2.68h4.39c0.32,0,0.56,0.08,0.72,0.23c0.16,0.15,0.24,0.35,0.24,0.6
		c0,0.25-0.08,0.45-0.23,0.61c-0.16,0.16-0.4,0.23-0.73,0.23h-4.39v3.11h4.93c0.33,0,0.58,0.08,0.75,0.24
		c0.17,0.16,0.25,0.38,0.25,0.64c0,0.26-0.08,0.47-0.25,0.63c-0.17,0.16-0.42,0.24-0.75,0.24h-5.75c-0.46,0-0.79-0.11-0.99-0.32
		c-0.2-0.21-0.3-0.56-0.3-1.04v-8.21c0-0.32,0.04-0.58,0.14-0.78c0.09-0.2,0.23-0.35,0.42-0.44s0.44-0.14,0.74-0.14h5.58
		c0.34,0,0.59,0.08,0.75,0.23c0.16,0.16,0.25,0.36,0.25,0.62c0,0.26-0.08,0.47-0.25,0.62C72.9,94.07,72.64,94.15,72.31,94.15z"/>
	<path class="st0" d="M78,98.69h-0.74v3.51c0,0.46-0.1,0.8-0.29,1.02c-0.19,0.22-0.45,0.33-0.76,0.33c-0.34,0-0.6-0.11-0.78-0.34
		c-0.19-0.23-0.28-0.56-0.28-1.01v-8.41c0-0.48,0.1-0.82,0.31-1.04s0.53-0.32,0.99-0.32h3.44c0.47,0,0.88,0.02,1.22,0.06
		c0.34,0.04,0.64,0.13,0.91,0.26c0.33,0.14,0.62,0.35,0.87,0.62c0.25,0.27,0.44,0.58,0.57,0.93c0.13,0.36,0.2,0.73,0.2,1.13
		c0,0.81-0.22,1.47-0.66,1.95c-0.44,0.49-1.11,0.83-2,1.04c0.38,0.21,0.73,0.52,1.08,0.92c0.34,0.41,0.65,0.84,0.92,1.3
		c0.27,0.46,0.48,0.87,0.63,1.24c0.15,0.37,0.22,0.62,0.22,0.76c0,0.14-0.04,0.29-0.13,0.43s-0.21,0.25-0.36,0.33
		s-0.33,0.12-0.53,0.12c-0.24,0-0.44-0.06-0.6-0.17c-0.16-0.12-0.3-0.26-0.42-0.44c-0.12-0.18-0.27-0.44-0.47-0.79l-0.85-1.48
		c-0.3-0.54-0.58-0.95-0.82-1.24c-0.24-0.28-0.48-0.48-0.73-0.58S78.37,98.69,78,98.69z M79.21,94.1h-1.95v3h1.89
		c0.51,0,0.94-0.05,1.28-0.14s0.61-0.25,0.79-0.47c0.18-0.22,0.27-0.53,0.27-0.91c0-0.3-0.07-0.57-0.22-0.8
		c-0.15-0.23-0.35-0.4-0.61-0.52C80.42,94.16,79.94,94.1,79.21,94.1z"/>
	<path class="st0" d="M86.96,92.44h2.76c0.72,0,1.33,0.07,1.84,0.21c0.51,0.14,0.98,0.4,1.4,0.78c1.09,0.97,1.63,2.46,1.63,4.44
		c0,0.66-0.05,1.25-0.16,1.8c-0.11,0.54-0.28,1.03-0.51,1.46c-0.23,0.44-0.52,0.82-0.88,1.17c-0.28,0.26-0.59,0.47-0.92,0.63
		c-0.33,0.16-0.69,0.27-1.07,0.33c-0.38,0.06-0.81,0.1-1.29,0.1H87c-0.38,0-0.67-0.06-0.87-0.18c-0.19-0.12-0.32-0.29-0.38-0.51
		c-0.06-0.22-0.09-0.51-0.09-0.86v-8.01c0-0.48,0.1-0.82,0.31-1.04S86.5,92.44,86.96,92.44z M87.78,94.19v7.42h1.6
		c0.35,0,0.63-0.01,0.83-0.03c0.2-0.02,0.41-0.07,0.62-0.15c0.21-0.08,0.4-0.19,0.56-0.34c0.71-0.63,1.06-1.7,1.06-3.23
		c0-1.08-0.16-1.89-0.47-2.42c-0.31-0.54-0.7-0.88-1.15-1.02c-0.46-0.15-1.01-0.22-1.65-0.22H87.78z"/>
	<path class="st0" d="M104.38,100.09c0,0.66-0.16,1.25-0.49,1.78c-0.33,0.53-0.8,0.94-1.43,1.24s-1.37,0.45-2.23,0.45
		c-1.03,0-1.88-0.2-2.55-0.61c-0.47-0.29-0.86-0.68-1.16-1.17s-0.45-0.96-0.45-1.43c0-0.27,0.09-0.5,0.27-0.69
		c0.18-0.19,0.4-0.29,0.68-0.29c0.22,0,0.41,0.07,0.57,0.22c0.15,0.15,0.29,0.37,0.4,0.66c0.13,0.35,0.28,0.64,0.43,0.87
		s0.37,0.43,0.65,0.58c0.28,0.15,0.65,0.23,1.1,0.23c0.63,0,1.14-0.15,1.53-0.46c0.39-0.31,0.59-0.69,0.59-1.14
		c0-0.36-0.11-0.66-0.32-0.88c-0.21-0.23-0.48-0.4-0.82-0.52s-0.78-0.25-1.34-0.38c-0.75-0.18-1.38-0.4-1.88-0.64
		s-0.91-0.58-1.2-1.01s-0.45-0.95-0.45-1.58c0-0.6,0.16-1.13,0.47-1.6c0.31-0.47,0.77-0.83,1.36-1.08s1.29-0.38,2.09-0.38
		c0.64,0,1.2,0.08,1.66,0.25c0.47,0.17,0.86,0.39,1.17,0.66s0.53,0.57,0.68,0.87c0.14,0.3,0.21,0.6,0.21,0.89
		c0,0.26-0.09,0.5-0.27,0.71c-0.18,0.21-0.4,0.32-0.67,0.32c-0.24,0-0.43-0.06-0.55-0.19c-0.13-0.13-0.26-0.33-0.41-0.62
		c-0.19-0.41-0.42-0.73-0.68-0.97c-0.27-0.23-0.69-0.35-1.28-0.35c-0.55,0-0.99,0.12-1.32,0.38c-0.33,0.25-0.5,0.55-0.5,0.91
		c0,0.22,0.06,0.41,0.17,0.57c0.11,0.16,0.27,0.3,0.47,0.41c0.2,0.11,0.4,0.2,0.61,0.27c0.2,0.06,0.54,0.16,1.01,0.28
		c0.59,0.14,1.12,0.3,1.6,0.48c0.48,0.17,0.88,0.38,1.22,0.63c0.33,0.25,0.6,0.56,0.78,0.94S104.38,99.53,104.38,100.09z"/>
	<path class="st0" d="M108.93,93.58l4.07,6.44v-6.5c0-0.42,0.09-0.74,0.26-0.95c0.17-0.21,0.41-0.32,0.7-0.32
		c0.3,0,0.54,0.11,0.72,0.32c0.18,0.21,0.26,0.53,0.26,0.95v8.59c0,0.96-0.38,1.44-1.14,1.44c-0.19,0-0.36-0.03-0.51-0.09
		c-0.15-0.06-0.29-0.15-0.43-0.27s-0.26-0.27-0.37-0.44c-0.11-0.17-0.23-0.34-0.34-0.51l-3.97-6.37v6.4c0,0.42-0.09,0.73-0.28,0.95
		c-0.19,0.21-0.42,0.32-0.71,0.32c-0.3,0-0.54-0.11-0.72-0.32c-0.18-0.22-0.27-0.53-0.27-0.94v-8.43c0-0.36,0.04-0.64,0.11-0.84
		c0.09-0.22,0.24-0.41,0.45-0.55c0.21-0.14,0.43-0.21,0.68-0.21c0.19,0,0.35,0.03,0.49,0.1c0.14,0.07,0.25,0.15,0.36,0.26
		c0.1,0.11,0.21,0.25,0.31,0.43C108.71,93.21,108.82,93.39,108.93,93.58z"/>
</g>
<polygon class="st1" points="79.2,85.86 71.92,85.86 73.3,76.75 77.75,76.75 "/>
<path class="st2" d="M81.12,86.75H69.99c-0.26,0-0.47-0.22-0.47-0.49c0-0.27,0.21-0.49,0.47-0.49h11.13c0.26,0,0.47,0.22,0.47,0.49
	C81.59,86.53,81.38,86.75,81.12,86.75z"/>
<path class="st3" d="M48.93,64.16c-1.17,0.32-2.25-0.39-2.57-1.45c-0.14-0.45-0.09-0.93-0.08-0.95c0,0,0.02-0.14,0.05-0.26
	c0.11-0.49,0.6-1.36,1.51-1.59c1.58-0.4,2.97,1.06,2.56,2.72C50.21,63.36,49.64,63.97,48.93,64.16z"/>
<path class="st4" d="M49.89,71.4c-2.3,1.85-4.92-0.87-3.17-3.3C49.02,66.25,51.64,68.98,49.89,71.4z"/>
<g>
	<path class="st5" d="M81.34,53.48c0,0,2.5-3.39,2.37-5"/>
	<path class="st6" d="M94.68,54.17v21.19c0,0.76-0.59,1.38-1.32,1.38H56.84c-0.73,0-1.32-0.62-1.32-1.38v-5.35
		C71.2,69,80.36,55.42,81.99,52.79h11.37C94.09,52.79,94.68,53.41,94.68,54.17z"/>
	<path class="st7" d="M74.81,52.79c-1.47,2.13-8.46,11.37-19.29,11.68v-10.3c0-0.76,0.59-1.38,1.32-1.38H74.81z"/>
	<path class="st7" d="M54.14,64.47c0.47,0.02,0.93,0.02,1.38,0.01"/>
	<path class="st4" d="M85.76,44.02c1.76,2.41-0.84,5.15-3.16,3.31C80.83,44.91,83.45,42.18,85.76,44.02z"/>
	<path class="st6" d="M55.52,70.02c-0.46,0.03-0.92,0.05-1.38,0.06c0,0-1.85,0.25-3.24-0.81"/>
	<path class="st7" d="M53.97,64.48c0,0-2.14-0.09-3.08-0.82"/>
	<path class="st8" d="M74.81,52.79c0,0,2.48-2.51,1.73-5.01"/>
	<path class="st3" d="M77.25,47.92c-1.17,0.32-2.25-0.39-2.57-1.45c-0.14-0.45-0.09-0.93-0.08-0.95c0,0,0.02-0.14,0.05-0.26
		c0.11-0.49,0.6-1.36,1.51-1.59c1.58-0.4,2.97,1.06,2.56,2.72C78.53,47.12,77.95,47.73,77.25,47.92z"/>
</g>
</svg>
