<?xml version="1.0" encoding="utf-8"?>
<!-- Generator: Adobe Illustrator 26.1.0, SVG Export Plug-In . SVG Version: 6.00 Build 0)  -->
<svg version="1.1" id="Layer_1" xmlns="http://www.w3.org/2000/svg" xmlns:xlink="http://www.w3.org/1999/xlink" x="0px" y="0px"
	 viewBox="0 0 150 150" style="enable-background:new 0 0 150 150;" xml:space="preserve">
<style type="text/css">
	.st0{fill:none;}
	.st1{fill:#325CA7;}
	.st2{fill:#2DB3AB;}
</style>
<g>
	<g>
		<path d="M61.21,92.21c-0.71,0.42-1.57,0.63-2.58,0.63c-1.12,0-2.01-0.33-2.68-1c-0.66-0.66-0.99-1.57-0.99-2.71
			c0-1.15,0.36-2.09,1.08-2.83c0.72-0.73,1.68-1.1,2.86-1.1c0.77,0,1.45,0.11,2.02,0.34v1.39c-0.56-0.34-1.24-0.52-2.06-0.52
			c-0.72,0-1.3,0.24-1.75,0.73c-0.45,0.48-0.68,1.12-0.68,1.92c0,0.81,0.2,1.44,0.61,1.89c0.41,0.45,0.96,0.67,1.67,0.67
			c0.43,0,0.79-0.07,1.08-0.22v-1.63h-1.49v-1.17h2.89V92.21z"/>
		<path d="M68.83,92.71H67.3l-0.59-1.77h-2.72l-0.57,1.77h-1.53l2.68-7.39h1.62L68.83,92.71z M66.36,89.81l-0.89-2.68
			c-0.04-0.11-0.07-0.31-0.11-0.61h-0.03c-0.03,0.22-0.07,0.43-0.12,0.6l-0.89,2.69H66.36z"/>
		<path d="M76.38,92.71v-4.58c0-0.33,0.02-0.85,0.06-1.54h-0.03c-0.08,0.42-0.16,0.72-0.23,0.9l-1.92,5.21H73.2l-1.94-5.17
			c-0.05-0.13-0.12-0.45-0.23-0.95H71c0.04,0.55,0.05,1.14,0.05,1.78v4.34h-1.27v-7.39h2.02l1.69,4.61
			c0.14,0.38,0.23,0.72,0.28,1.01h0.03c0.07-0.29,0.17-0.63,0.3-1.02l1.71-4.6h1.96v7.39H76.38z"/>
		<path d="M83.68,92.71h-4.19v-7.39h4.03v1.19h-2.63v1.88h2.44v1.19h-2.44v1.95h2.79V92.71z"/>
		<path d="M84.58,90.96c0.57,0.49,1.23,0.73,1.97,0.73c0.45,0,0.78-0.08,1-0.24s0.33-0.37,0.33-0.62c0-0.22-0.09-0.43-0.28-0.62
			s-0.63-0.44-1.33-0.74c-0.6-0.27-1.04-0.58-1.31-0.93s-0.41-0.75-0.41-1.21c0-0.67,0.25-1.19,0.76-1.56
			c0.5-0.38,1.17-0.56,1.99-0.56c0.73,0,1.31,0.09,1.74,0.28v1.37c-0.47-0.33-1.03-0.49-1.7-0.49c-0.39,0-0.71,0.08-0.95,0.23
			s-0.36,0.36-0.36,0.62c0,0.21,0.08,0.4,0.25,0.58c0.17,0.17,0.56,0.4,1.17,0.68c0.71,0.32,1.2,0.65,1.48,0.99s0.41,0.76,0.41,1.24
			c0,0.7-0.24,1.23-0.73,1.59c-0.49,0.37-1.17,0.55-2.05,0.55c-0.82,0-1.48-0.14-1.99-0.42V90.96z"/>
	</g>
	<g>
		<path d="M62.75,100.38v-2.84c0-0.21,0.01-0.53,0.04-0.95h-0.02c-0.05,0.26-0.1,0.45-0.14,0.56l-1.19,3.24h-0.66l-1.21-3.21
			c-0.03-0.08-0.08-0.28-0.14-0.59h-0.02c0.02,0.34,0.03,0.71,0.03,1.1v2.69h-0.79v-4.59h1.25l1.05,2.86
			c0.09,0.24,0.15,0.45,0.17,0.63h0.02c0.04-0.18,0.11-0.39,0.19-0.64l1.06-2.85h1.21v4.59H62.75z"/>
		<path d="M67.28,100.38h-2.6v-4.59h2.5v0.74h-1.63v1.17h1.51v0.74h-1.51v1.21h1.73V100.38z"/>
		<path d="M72.14,100.38v-2.84c0-0.21,0.01-0.53,0.04-0.95h-0.02c-0.05,0.26-0.1,0.45-0.14,0.56l-1.19,3.24h-0.66l-1.21-3.21
			c-0.03-0.08-0.08-0.28-0.14-0.59H68.8c0.02,0.34,0.03,0.71,0.03,1.1v2.69h-0.79v-4.59h1.25l1.05,2.86
			c0.09,0.24,0.15,0.45,0.17,0.63h0.02c0.04-0.18,0.11-0.39,0.19-0.64l1.06-2.85H73v4.59H72.14z"/>
		<path d="M73.79,98.14c0-0.72,0.2-1.31,0.61-1.75c0.41-0.45,0.95-0.67,1.62-0.67c0.64,0,1.15,0.22,1.54,0.65
			c0.39,0.43,0.58,0.99,0.58,1.67c0,0.72-0.2,1.3-0.6,1.75c-0.4,0.45-0.93,0.67-1.59,0.67c-0.64,0-1.16-0.22-1.56-0.65
			S73.79,98.82,73.79,98.14z M74.71,98.09c0,0.47,0.11,0.85,0.34,1.15c0.23,0.3,0.53,0.45,0.92,0.45c0.4,0,0.71-0.14,0.94-0.43
			c0.22-0.28,0.33-0.67,0.33-1.16c0-0.5-0.11-0.9-0.32-1.18s-0.52-0.43-0.92-0.43c-0.4,0-0.71,0.15-0.94,0.45
			C74.82,97.24,74.71,97.63,74.71,98.09z"/>
	</g>
	<g>
		<path d="M82.53,100.38h-1.01l-0.71-1.21c-0.14-0.25-0.27-0.41-0.37-0.48c-0.1-0.08-0.21-0.12-0.33-0.12h-0.32v1.81h-0.87v-4.59
			h1.53c1.04,0,1.56,0.41,1.56,1.24c0,0.3-0.09,0.57-0.26,0.79S81.32,98.2,81,98.29v0.01c0.21,0.07,0.43,0.31,0.68,0.71
			L82.53,100.38z M79.79,96.48v1.39h0.52c0.24,0,0.42-0.07,0.57-0.21c0.14-0.14,0.21-0.32,0.21-0.53c0-0.44-0.25-0.65-0.76-0.65
			H79.79z"/>
	</g>
	<g>
		<path d="M86.19,95.79l-1.47,2.94v1.65h-0.87v-1.63l-1.43-2.96h1l0.8,1.82c0.01,0.03,0.05,0.14,0.1,0.35h0.01
			c0.02-0.13,0.06-0.24,0.1-0.34l0.83-1.83H86.19z"/>
	</g>
	<rect x="54.55" y="47.06" class="st0" width="35.2" height="54.89"/>
	<polygon class="st1" points="60.39,75.61 71.31,80.84 71.31,74.87 60.39,69.7 	"/>
	<polygon class="st1" points="72.97,74.84 83.92,69.63 83.92,75.58 73.09,80.86 	"/>
	<path class="st2" d="M83.75,67.88l-11.64,5.87l-11.72-5.87l11.49-5.72l1.69-6c-1.04-0.95-1.7-2.34-1.7-3.88
		c0-2.88,2.29-5.22,5.11-5.22c2.82,0,5.11,2.33,5.11,5.22c0,2.55-1.8,4.68-4.17,5.12l-1.87,6.62L83.75,67.88z"/>
</g>
</svg>
