<?xml version="1.0" encoding="utf-8"?>
<!-- Generator: Adobe Illustrator 26.1.0, SVG Export Plug-In . SVG Version: 6.00 Build 0)  -->
<svg version="1.1" id="Layer_1" xmlns="http://www.w3.org/2000/svg" xmlns:xlink="http://www.w3.org/1999/xlink" x="0px" y="0px"
	 viewBox="0 0 150 150" style="enable-background:new 0 0 150 150;" xml:space="preserve">
<style type="text/css">
	.st0{fill:none;stroke:#1D1D1B;stroke-width:0.75;stroke-linecap:round;stroke-linejoin:round;stroke-miterlimit:10;}
	.st1{fill:none;stroke:#1D1D1B;stroke-width:0.75;stroke-miterlimit:10;}
	.st2{fill:#5CB030;}
	.st3{fill:none;stroke:#1D1D1B;stroke-miterlimit:10;}
	.st4{fill:#65B22E;}
	.st5{fill:#83BB26;}
	.st6{fill:#35A8E0;}
	.st7{fill:#1D1D1B;}
</style>
<g>
	<g>
		<path class="st0" d="M74.11,83.11l-0.02,0h-0.01C74.09,83.11,74.1,83.11,74.11,83.11z"/>
		<path class="st1" d="M53.65,56.11"/>
		<path class="st2" d="M82.09,62.92h-4.56c-1.07,0-1.94,0.87-1.94,1.94v13.93c0,1.07,0.87,1.94,1.94,1.94h4.56
			c1.07,0,1.94-0.87,1.94-1.94V64.86C84.03,63.79,83.16,62.92,82.09,62.92z"/>
		<path class="st3" d="M74.11,83.11l-0.02,0h-0.01C74.09,83.11,74.1,83.11,74.11,83.11z"/>
		<path class="st3" d="M74.11,83.11l-0.02,0h-0.01C74.09,83.11,74.1,83.11,74.11,83.11z"/>
		<path class="st4" d="M62.37,83.33c0.62,0.22,2.05,0.52,3.11,0.69c0.01-0.04,0.02-0.08,0.02-0.12V63.93c0-0.23-0.19-0.43-0.43-0.43
			h-7.59c-0.23,0-0.43,0.19-0.43,0.43v17.7c0.57,0.07,1.21,0.24,1.85,0.44C60.2,82.47,61.51,83.03,62.37,83.33z"/>
		<path class="st5" d="M90.79,79.12c0.54-0.79,1.02-1.61,1.46-2.47V60.63c0-0.23-0.19-0.43-0.43-0.43h-8.13
			c-0.23,0-0.43,0.19-0.43,0.43v17.13c0.03,0,0.06,0,0.08,0.01c0.78,0.07,2.36,0.79,2.5,0.93s3.06,1.7,3.06,1.7
			c0.15-0.08,0.29-0.16,0.43-0.24C90.2,79.64,90.74,79.14,90.79,79.12C90.79,79.12,90.79,79.12,90.79,79.12z"/>
		<path class="st5" d="M70.86,57.87H66.3c-1.07,0-1.94,0.87-1.94,1.94v21.95c0,1.07,0.87,1.94,1.94,1.94h4.56
			c1.07,0,1.94-0.87,1.94-1.94V59.81C72.8,58.74,71.93,57.87,70.86,57.87z"/>
		<path class="st6" d="M72.75,42c-0.07,0-0.14,0-0.21,0c-8.67,0.02-16.34,4.79-20.39,11.96l-0.25,0.46l-0.11-0.07l-1.71-1.06
			c-0.47-0.29-1.08,0.04-1.1,0.59l-0.09,3.11l-0.09,3.11c-0.01,0.4,0.3,0.71,0.66,0.74c0.13,0.01,0.27-0.01,0.4-0.08l1.12-0.6
			l1.62-0.87l2.74-1.47c0.49-0.26,0.51-0.96,0.04-1.25l-1.98-1.27l-0.25-0.16c3.61-6.81,10.71-11.37,18.77-11.61h0.03
			c0.69-0.02,1.38-0.01,2.09,0.04c12.28,0.78,21.46,11.35,20.52,23.62c-0.3,3.97-1.65,7.63-3.75,10.7c0,0,0,0,0,0
			c-0.05,0.02-0.59,0.52-1.45,1.04c-0.13,0.08-0.28,0.16-0.43,0.24c0,0-2.91-1.57-3.06-1.7s-1.72-0.86-2.5-0.93
			c-0.78-0.07-2.64-0.04-3.3,0.03c-0.66,0.07-2.4,0.26-3,0.46c-0.6,0.21-2.17,0.82-2.5,0.95c-0.34,0.13-1.66,0.34-1.92,0.37
			c-0.26,0.03-1.29,0.1-1.77,0.05c-0.48-0.05-1.41-0.09-1.89-0.07c-0.65,0.03-1.1,0.14-1.52,0.2c-0.68,0.1-1.92,0.46-2.36,1.07
			c-0.45,0.64-0.42,1.59,0.42,1.92c0.83,0.33,2.22,0.5,2.74,0.53l1.36,0.08c0.06,0,0.07,0.09,0.01,0.11l-2.08,0.71
			c-0.22,0.03-2.02,0.36-2.98,0.29c-0.89-0.07-3.18-0.52-4.01-0.81c-0.86-0.3-2.17-0.86-3.46-1.26c-0.85-0.27-1.69-0.47-2.39-0.48
			c-0.04,0-0.07,0-0.1,0c-1.95,0.01-1.55,1.36-1.13,1.64c0.42,0.29,1.97,0.72,2.39,0.92c0.36,0.17,2.49,1.15,3.31,1.56
			c0.13,0.07,0.22,0.12,0.28,0.15c0.01,0.01,0.02,0.02,0.03,0.02l0.49,0.32l2.33,1.31l0.01,0c0,0,0.01,0,0.03,0.01
			c0.22,0.09,1.84,0.78,2.63,1.08c0.16,0.05,0.31,0.1,0.47,0.15c1.85,0.58,3.8,0.93,5.82,1.04c0.39,0.02,0.79,0.03,1.19,0.03
			c1.34,0,2.65-0.11,3.93-0.33c0,0,0.01,0,0.01,0c0.89-0.21,2.21-0.52,3.35-0.82C89.12,84.7,95.9,75.87,95.9,65.45
			C95.9,52.6,85.57,42.16,72.75,42z M74.71,83.04L74.71,83.04c0,0,0.01,0,0.02,0L74.71,83.04z"/>
	</g>
	<g>
		<path class="st7" d="M53.67,91.64l-0.24-0.1l0.04-2.97c0-0.41,0.02-0.85,0.05-1.32l-0.02-0.01c-0.23,0.6-0.44,1.14-0.66,1.63
			l-0.89,2.03l-0.51-0.22l1.83-4.21l0.74,0.32l-0.05,2.81c-0.01,0.32-0.02,0.7-0.05,1.15l0.02,0.01c0.34-0.36,0.6-0.63,0.8-0.82
			l2.03-1.95l0.74,0.32l-1.83,4.21l-0.51-0.22l0.89-2.04c0.21-0.48,0.46-1,0.74-1.59l-0.03-0.01c-0.34,0.36-0.65,0.67-0.93,0.94
			L53.67,91.64z"/>
		<path class="st7" d="M56.24,93.04l3.7-3.3l0.43,0.21l-0.34,4.94l-0.55-0.27l0.12-1.48l-1.72-0.84l-1.1,1L56.24,93.04z
			 M59.84,90.48c-0.44,0.42-0.84,0.8-1.21,1.14l-0.34,0.31l1.37,0.67l0.03-0.46c0.04-0.51,0.1-1.06,0.17-1.65L59.84,90.48z"/>
		<path class="st7" d="M62.11,93.71l-0.72,1.76l-0.52-0.21l1.73-4.25l1.1,0.45c0.19,0.08,0.34,0.15,0.47,0.21
			c0.12,0.07,0.23,0.14,0.33,0.21c0.26,0.2,0.43,0.43,0.51,0.69c0.08,0.26,0.06,0.53-0.06,0.82c-0.07,0.17-0.16,0.31-0.27,0.43
			s-0.24,0.2-0.38,0.26s-0.29,0.09-0.46,0.1s-0.34-0.01-0.52-0.05l0,0.01l0.52,2.33l-0.52-0.21l-0.59-2.29L62.11,93.71z
			 M62.94,91.68l-0.63,1.56l0.51,0.21c0.16,0.07,0.3,0.12,0.41,0.15c0.12,0.04,0.23,0.06,0.33,0.07c0.2,0.02,0.38-0.01,0.52-0.09
			c0.15-0.08,0.26-0.22,0.34-0.41c0.07-0.18,0.09-0.35,0.04-0.5c-0.05-0.15-0.14-0.28-0.28-0.39c-0.07-0.05-0.15-0.11-0.25-0.16
			s-0.23-0.11-0.4-0.18L62.94,91.68z"/>
		<path class="st7" d="M65.31,96.98l0.85-4.51l0.55,0.1l-0.42,2.23l0.01,0l2.49-1.84l0.55,0.1l-2.53,1.85l1.8,2.69l-0.55-0.1
			l-1.78-2.62l-0.01,0l-0.42,2.21L65.31,96.98z"/>
		<path class="st7" d="M70.54,97.23l2.35,0.1l-0.02,0.5l-2.91-0.12l0.19-4.59l2.78,0.12l-0.02,0.5l-2.22-0.09l-0.06,1.48l1.98,0.08
			l-0.02,0.5l-1.98-0.08L70.54,97.23z"/>
		<path class="st7" d="M75.95,97.6l-0.56,0.06l-0.47-4.06l-1.52,0.18l-0.06-0.5l3.6-0.42l0.06,0.5l-1.52,0.18L75.95,97.6z"/>
		<path class="st7" d="M77.92,92.53l1.16,3.92l2.15-0.63l0.14,0.48l-2.68,0.79l-1.3-4.4L77.92,92.53z"/>
		<path class="st7" d="M81.92,96.08l0.15-4.95l0.45-0.17l3.36,3.65l-0.57,0.21l-1-1.1l-1.8,0.67l-0.03,1.49L81.92,96.08z
			 M82.54,91.72c0.01,0.61,0.01,1.16-0.01,1.66l-0.01,0.46l1.43-0.53l-0.31-0.34c-0.34-0.38-0.7-0.8-1.08-1.26L82.54,91.72z"/>
		<path class="st7" d="M88.02,91.15c0.45,0.2,0.9,0.41,1.36,0.64l0.02-0.01c-0.26-0.37-0.5-0.75-0.75-1.14l-1.26-2.09l0.48-0.29
			l2.38,3.93l-0.48,0.29l-2.87-1.26c-0.5-0.22-0.95-0.43-1.36-0.64l-0.02,0.01c0.24,0.34,0.51,0.75,0.8,1.23l1.21,2l-0.48,0.29
			l-2.38-3.93l0.48-0.29L88.02,91.15z"/>
		<path class="st7" d="M92.91,86.98c0.18,0.2,0.32,0.41,0.43,0.63c0.11,0.22,0.17,0.44,0.2,0.67c0.03,0.23,0.01,0.46-0.05,0.7
			c-0.06,0.24-0.16,0.47-0.31,0.71c-0.08,0.13-0.19,0.27-0.31,0.4c-0.12,0.13-0.26,0.27-0.41,0.41l-0.77,0.69l-3.07-3.42l0.78-0.7
			c0.15-0.14,0.3-0.26,0.45-0.37c0.14-0.11,0.29-0.19,0.43-0.26c0.25-0.12,0.49-0.2,0.73-0.23s0.47-0.03,0.69,0.02
			c0.22,0.05,0.43,0.14,0.63,0.26S92.74,86.78,92.91,86.98z M92.5,87.35c-0.29-0.33-0.61-0.53-0.93-0.6s-0.67-0.03-1.01,0.12
			c-0.13,0.06-0.27,0.14-0.41,0.25c-0.14,0.1-0.29,0.23-0.45,0.37l-0.32,0.29l2.39,2.67l0.32-0.29c0.16-0.14,0.3-0.28,0.42-0.41
			c0.12-0.13,0.21-0.25,0.29-0.38c0.19-0.33,0.27-0.66,0.22-1.01S92.8,87.68,92.5,87.35z"/>
	</g>
</g>
</svg>
