<?xml version="1.0" encoding="utf-8"?>
<!-- Generator: Adobe Illustrator 26.1.0, SVG Export Plug-In . SVG Version: 6.00 Build 0)  -->
<svg version="1.1" id="Layer_1" xmlns="http://www.w3.org/2000/svg" xmlns:xlink="http://www.w3.org/1999/xlink" x="0px" y="0px"
	 viewBox="0 0 150 150" style="enable-background:new 0 0 150 150;" xml:space="preserve">
<style type="text/css">
	.st0{fill:#802325;}
	.st1{fill:#1D1D1B;}
	.st2{fill:#802425;}
</style>
<g>
	<g>
		<g>
			<circle class="st0" cx="78.9" cy="48.64" r="4.48"/>
			<path class="st0" d="M83.39,48.64c-0.17,6.05-8.97,6.08-9.18,0C74.41,42.56,83.21,42.59,83.39,48.64L83.39,48.64z M83.39,48.64
				c-0.23-5.83-8.59-5.76-8.76,0C74.8,54.4,83.16,54.47,83.39,48.64L83.39,48.64z"/>
		</g>
		<g>
			<path class="st0" d="M73.62,58.24c0.09-0.34-0.14-0.64-0.32-0.93c-1.33-1.88-3.27-3.45-5.27-4.48c-5.21-2.89-9.44,1-13.33,4.15
				c-2.17,1.73-4.33,3.51-6.68,5.16c1.44-2.48,3.19-4.72,5.1-6.84c4.17-4.81,10.03-8.82,16.11-4.43c2.13,1.58,3.81,3.72,4.48,6.27
				C73.76,57.5,73.88,57.94,73.62,58.24L73.62,58.24z"/>
		</g>
		<g>
			<path class="st0" d="M79.96,55.31c2.7,1.51,5.38,3.7,8.34,3.69c0.82-0.12,1.5-0.7,2.24-1.18c3.26-2.29,7.55-5.57,11.1-7.4
				c-2.51,3.9-5.67,7.11-9.44,9.82c-0.83,0.53-1.59,1.07-2.62,1.36C85.34,62.5,81.8,58.51,79.96,55.31L79.96,55.31z"/>
		</g>
		<g>
			<path class="st0" d="M68.2,62.15c5.48,1.37,11.23,3.69,14.8,8.33c2.78,4.01-0.67,8.91-3.07,12.19c-1.97,2.55-4.18,4.86-6.68,6.86
				c1.65-2.73,3.34-5.37,4.87-8.06c1.26-2.35,3.06-5.36,3.03-7.9c-0.37-2.3-3.36-4.43-5.27-5.96C73.41,65.76,70.8,64.03,68.2,62.15
				L68.2,62.15z"/>
		</g>
		<g>
			<path class="st0" d="M76.17,65.89c-0.9,4.91-3.05,9.47-6.65,13.05c-3.82,3.32-9.24,4.58-14.17,3.9c2.31-0.82,4.5-1.63,6.58-2.61
				C68.71,77.59,71.88,71.37,76.17,65.89L76.17,65.89z"/>
		</g>
	</g>
	<g>
		<path class="st1" d="M36.72,99.46c0,1.13-0.41,2.02-1.24,2.66c-0.83,0.64-1.89,0.97-3.17,0.97c-1.02,0-2-0.28-2.96-0.84
			c-0.47-0.29-0.86-0.7-1.16-1.23c-0.3-0.53-0.45-1.14-0.45-1.82l2.12-0.1c0,0.6,0.26,1.07,0.77,1.41c0.52,0.34,1.09,0.5,1.71,0.5
			c1.4,0,2.1-0.49,2.1-1.48c0-0.81-0.48-1.28-1.43-1.43l-1.95-0.2c-0.97-0.15-1.75-0.49-2.32-1.04c-0.57-0.55-0.86-1.34-0.86-2.37
			c0-1.03,0.41-1.88,1.23-2.55c0.82-0.67,1.85-1.01,3.1-1.01c1.25,0,2.25,0.32,3.01,0.95c0.76,0.63,1.14,1.45,1.14,2.44l-2.08,0.1
			c-0.19-0.97-0.85-1.46-1.96-1.46c-0.68,0-1.22,0.15-1.6,0.44c-0.39,0.29-0.58,0.64-0.58,1.03c0,0.4,0.14,0.71,0.42,0.94
			c0.28,0.23,0.63,0.37,1.04,0.43l1.91,0.2C35.66,96.29,36.72,97.45,36.72,99.46z"/>
		<path class="st1" d="M45.02,102.99h-1.46l-0.67-1.16l-2.33,1.26c-1.3,0-2.17-0.47-2.62-1.41c-0.22-0.46-0.38-0.95-0.46-1.49
			c-0.08-0.53-0.13-1.09-0.13-1.66c0-0.58,0.01-1,0.02-1.28c0.01-0.27,0.04-0.59,0.08-0.96c0.04-0.36,0.11-0.67,0.19-0.91
			c0.08-0.25,0.2-0.5,0.36-0.76c0.16-0.26,0.35-0.47,0.57-0.63c0.5-0.35,1.16-0.52,1.96-0.52h2.3l2.18-0.13V102.99z M42.84,99.93
			v-4.5h-1.66c-0.62,0-1.04,0.24-1.28,0.71s-0.36,1.17-0.36,2.11c0,0.94,0.11,1.59,0.34,1.97c0.23,0.38,0.66,0.57,1.3,0.57
			L42.84,99.93z"/>
		<path class="st1" d="M54.38,93.4l-3.21,9.59h-1.71l-3.22-9.59h2.3l1.78,6.25l1.76-6.25H54.38z"/>
		<path class="st1" d="M62.27,102.99h-1.46l-0.67-1.16l-2.33,1.26c-1.3,0-2.17-0.47-2.62-1.41c-0.22-0.46-0.38-0.95-0.46-1.49
			c-0.08-0.53-0.13-1.09-0.13-1.66c0-0.58,0.01-1,0.02-1.28c0.01-0.27,0.04-0.59,0.08-0.96c0.05-0.36,0.11-0.67,0.19-0.91
			c0.08-0.25,0.2-0.5,0.36-0.76c0.16-0.26,0.35-0.47,0.57-0.63c0.5-0.35,1.16-0.52,1.97-0.52h2.3l2.18-0.13V102.99z M60.09,99.93
			v-4.5h-1.66c-0.62,0-1.04,0.24-1.28,0.71c-0.24,0.47-0.36,1.17-0.36,2.11c0,0.94,0.11,1.59,0.34,1.97
			c0.23,0.38,0.66,0.57,1.3,0.57L60.09,99.93z"/>
		<path class="st1" d="M69.34,93.47l2.18-0.13v9.22c0,1.06-0.3,1.88-0.9,2.44c-0.6,0.56-1.49,0.85-2.66,0.85
			c-0.91,0-1.7-0.18-2.39-0.54c-0.36-0.18-0.64-0.45-0.86-0.81c-0.21-0.36-0.32-0.78-0.32-1.28l2.03-0.1c0,0.31,0.11,0.54,0.34,0.67
			c0.22,0.13,0.61,0.2,1.15,0.2c0.54,0,0.91-0.13,1.11-0.4c0.2-0.27,0.29-0.66,0.29-1.16l0.08-1.44l-2.35,1.26
			c-1.29,0-2.16-0.44-2.6-1.31c-0.4-0.77-0.6-1.72-0.6-2.84c0-1.33,0.1-2.27,0.3-2.82c0.21-0.6,0.52-1.04,0.91-1.31
			c0.5-0.34,1.17-0.5,1.98-0.5H69.34z M69.34,99.09v-3.66h-1.66c-0.63,0-1.06,0.21-1.29,0.64c-0.24,0.43-0.35,1.02-0.35,1.78
			c0,0.76,0.12,1.3,0.36,1.62c0.24,0.32,0.67,0.48,1.28,0.48L69.34,99.09z"/>
		<path class="st1" d="M81.15,98.71h-5.59c0,0.87,0.14,1.51,0.41,1.91c0.27,0.4,0.83,0.6,1.65,0.6c0.54,0,0.93-0.17,1.19-0.51
			s0.39-0.67,0.39-0.98h1.96c0,1.2-0.32,2.08-0.97,2.64c-0.64,0.56-1.49,0.84-2.55,0.84c-1.06,0-1.88-0.15-2.46-0.45
			c-1.2-0.62-1.8-2.25-1.8-4.9c0-1.58,0.34-2.73,1.03-3.47c0.68-0.73,1.72-1.1,3.12-1.1c2.43,0,3.64,1.35,3.64,4.05
			C81.18,97.62,81.17,98.08,81.15,98.71z M75.6,97.21h3.59c0-0.74-0.14-1.28-0.42-1.61c-0.28-0.34-0.71-0.5-1.28-0.5
			c-0.58,0-1.04,0.17-1.38,0.51S75.6,96.49,75.6,97.21z"/>
		<path class="st2" d="M91.39,99.46c0,1.13-0.41,2.02-1.24,2.66c-0.83,0.64-1.89,0.97-3.17,0.97c-1.02,0-2-0.28-2.96-0.84
			c-0.47-0.29-0.86-0.7-1.16-1.23c-0.3-0.53-0.45-1.14-0.45-1.82l2.12-0.1c0,0.6,0.26,1.07,0.77,1.41c0.51,0.34,1.09,0.5,1.71,0.5
			c1.4,0,2.1-0.49,2.1-1.48c0-0.81-0.48-1.28-1.43-1.43l-1.95-0.2c-0.97-0.15-1.75-0.49-2.32-1.04c-0.57-0.55-0.86-1.34-0.86-2.37
			c0-1.03,0.41-1.88,1.23-2.55s1.85-1.01,3.1-1.01s2.25,0.32,3.01,0.95c0.76,0.63,1.14,1.45,1.14,2.44l-2.08,0.1
			c-0.19-0.97-0.85-1.46-1.97-1.46c-0.68,0-1.22,0.15-1.6,0.44c-0.39,0.29-0.58,0.64-0.58,1.03c0,0.4,0.14,0.71,0.42,0.94
			c0.28,0.23,0.63,0.37,1.04,0.43l1.91,0.2C90.32,96.29,91.39,97.45,91.39,99.46z"/>
		<path class="st2" d="M100.75,97.94c0,2.5-0.64,4.09-1.93,4.79c-0.53,0.28-1.17,0.42-1.93,0.42l-1.61-1.04v3.75h-2.18V93.47h4.3
			c1.3,0,2.18,0.37,2.65,1.1C100.51,95.3,100.75,96.42,100.75,97.94z M98.56,98.27c0-1.89-0.6-2.84-1.81-2.84h-1.48v4.45l1.48,0.96
			c0.65,0,1.11-0.2,1.39-0.61C98.42,99.82,98.56,99.17,98.56,98.27z"/>
		<path class="st2" d="M109.87,98.15c0,2.07-0.39,3.46-1.18,4.17c-0.66,0.6-1.62,0.91-2.87,0.91c-1.6,0-2.68-0.47-3.24-1.41
			c-0.53-0.86-0.79-2.08-0.79-3.66c0-1.48,0.26-2.64,0.79-3.48c0.58-0.94,1.64-1.41,3.18-1.41c1.54,0,2.61,0.41,3.21,1.23
			C109.57,95.32,109.87,96.54,109.87,98.15z M107.68,98.66v-0.87c0-0.83-0.12-1.46-0.36-1.9c-0.24-0.44-0.74-0.65-1.5-0.65
			c-1.23,0-1.85,0.83-1.85,2.49v0.87c0,1.78,0.62,2.67,1.85,2.67c0.79,0,1.32-0.3,1.56-0.89C107.58,99.9,107.68,99.33,107.68,98.66z
			"/>
		<path class="st2" d="M116.7,93.43l-0.6,2.15c-0.17-0.07-0.36-0.1-0.57-0.1c-0.56,0-1.25,0.24-2.07,0.72v6.79h-2.18V93.4h1.63
			l0.5,0.84l2.32-0.96c0.11-0.01,0.26-0.02,0.45-0.02C116.37,93.27,116.55,93.32,116.7,93.43z"/>
		<path class="st2" d="M122.26,102.99h-1.36c-0.83,0-1.46-0.25-1.89-0.74c-0.43-0.49-0.65-1.08-0.65-1.76v-5.04h-0.92v-1.66h0.92
			v-1.88h2.18v1.88h1.55v1.66h-1.55v4.9c0,0.53,0.25,0.79,0.76,0.79h0.96V102.99z"/>
	</g>
</g>
</svg>
