<svg id="visual" viewBox="0 0 900 300" width="900" height="300" xmlns="http://www.w3.org/2000/svg" xmlns:xlink="http://www.w3.org/1999/xlink" version="1.1"><rect x="0" y="0" width="900" height="300" fill="#001220"></rect><path d="M0 222L21.5 225.2C43 228.3 86 234.7 128.8 237.3C171.7 240 214.3 239 257.2 234C300 229 343 220 385.8 220.5C428.7 221 471.3 231 514.2 226.8C557 222.7 600 204.3 642.8 194.3C685.7 184.3 728.3 182.7 771.2 184.7C814 186.7 857 192.3 878.5 195.2L900 198L900 0L878.5 0C857 0 814 0 771.2 0C728.3 0 685.7 0 642.8 0C600 0 557 0 514.2 0C471.3 0 428.7 0 385.8 0C343 0 300 0 257.2 0C214.3 0 171.7 0 128.8 0C86 0 43 0 21.5 0L0 0Z" fill="#fa7268"></path><path d="M0 158L21.5 153.7C43 149.3 86 140.7 128.8 143.5C171.7 146.3 214.3 160.7 257.2 169.3C300 178 343 181 385.8 182.2C428.7 183.3 471.3 182.7 514.2 179.5C557 176.3 600 170.7 642.8 165.8C685.7 161 728.3 157 771.2 152.7C814 148.3 857 143.7 878.5 141.3L900 139L900 0L878.5 0C857 0 814 0 771.2 0C728.3 0 685.7 0 642.8 0C600 0 557 0 514.2 0C471.3 0 428.7 0 385.8 0C343 0 300 0 257.2 0C214.3 0 171.7 0 128.8 0C86 0 43 0 21.5 0L0 0Z" fill="#ca5267"></path><path d="M0 100L21.5 98.7C43 97.3 86 94.7 128.8 96.7C171.7 98.7 214.3 105.3 257.2 110.3C300 115.3 343 118.7 385.8 118.2C428.7 117.7 471.3 113.3 514.2 114.7C557 116 600 123 642.8 125.8C685.7 128.7 728.3 127.3 771.2 130.2C814 133 857 140 878.5 143.5L900 147L900 0L878.5 0C857 0 814 0 771.2 0C728.3 0 685.7 0 642.8 0C600 0 557 0 514.2 0C471.3 0 428.7 0 385.8 0C343 0 300 0 257.2 0C214.3 0 171.7 0 128.8 0C86 0 43 0 21.5 0L0 0Z" fill="#953a5e"></path><path d="M0 104L21.5 102.2C43 100.3 86 96.7 128.8 98.5C171.7 100.3 214.3 107.7 257.2 111.2C300 114.7 343 114.3 385.8 113.5C428.7 112.7 471.3 111.3 514.2 103C557 94.7 600 79.3 642.8 73.5C685.7 67.7 728.3 71.3 771.2 75.2C814 79 857 83 878.5 85L900 87L900 0L878.5 0C857 0 814 0 771.2 0C728.3 0 685.7 0 642.8 0C600 0 557 0 514.2 0C471.3 0 428.7 0 385.8 0C343 0 300 0 257.2 0C214.3 0 171.7 0 128.8 0C86 0 43 0 21.5 0L0 0Z" fill="#60274c"></path><path d="M0 64L21.5 58.5C43 53 86 42 128.8 41.7C171.7 41.3 214.3 51.7 257.2 55.8C300 60 343 58 385.8 57C428.7 56 471.3 56 514.2 57.8C557 59.7 600 63.3 642.8 62.8C685.7 62.3 728.3 57.7 771.2 51C814 44.3 857 35.7 878.5 31.3L900 27L900 0L878.5 0C857 0 814 0 771.2 0C728.3 0 685.7 0 642.8 0C600 0 557 0 514.2 0C471.3 0 428.7 0 385.8 0C343 0 300 0 257.2 0C214.3 0 171.7 0 128.8 0C86 0 43 0 21.5 0L0 0Z" fill="#301532"></path></svg>