<svg id="visual" viewBox="0 0 960 200" width="960" height="200" xmlns="http://www.w3.org/2000/svg" xmlns:xlink="http://www.w3.org/1999/xlink" version="1.1"><rect x="0" y="0" width="960" height="200" fill="#001220"></rect><path d="M0 73L22.8 74.2C45.7 75.3 91.3 77.7 137 78.7C182.7 79.7 228.3 79.3 274 77.7C319.7 76 365.3 73 411.2 73.2C457 73.3 503 76.7 548.8 75.2C594.7 73.7 640.3 67.3 686 64C731.7 60.7 777.3 60.3 823 61C868.7 61.7 914.3 63.3 937.2 64.2L960 65L960 0L937.2 0C914.3 0 868.7 0 823 0C777.3 0 731.7 0 686 0C640.3 0 594.7 0 548.8 0C503 0 457 0 411.2 0C365.3 0 319.7 0 274 0C228.3 0 182.7 0 137 0C91.3 0 45.7 0 22.8 0L0 0Z" fill="#fa7268"></path><path d="M0 52L22.8 50.5C45.7 49 91.3 46 137 47C182.7 48 228.3 53 274 56C319.7 59 365.3 60 411.2 60.3C457 60.7 503 60.3 548.8 59.2C594.7 58 640.3 56 686 54.3C731.7 52.7 777.3 51.3 823 50C868.7 48.7 914.3 47.3 937.2 46.7L960 46L960 0L937.2 0C914.3 0 868.7 0 823 0C777.3 0 731.7 0 686 0C640.3 0 594.7 0 548.8 0C503 0 457 0 411.2 0C365.3 0 319.7 0 274 0C228.3 0 182.7 0 137 0C91.3 0 45.7 0 22.8 0L0 0Z" fill="#ca5267"></path><path d="M0 33L22.8 32.5C45.7 32 91.3 31 137 31.7C182.7 32.3 228.3 34.7 274 36.3C319.7 38 365.3 39 411.2 38.8C457 38.7 503 37.3 548.8 37.8C594.7 38.3 640.3 40.7 686 41.5C731.7 42.3 777.3 41.7 823 42.5C868.7 43.3 914.3 45.7 937.2 46.8L960 48L960 0L937.2 0C914.3 0 868.7 0 823 0C777.3 0 731.7 0 686 0C640.3 0 594.7 0 548.8 0C503 0 457 0 411.2 0C365.3 0 319.7 0 274 0C228.3 0 182.7 0 137 0C91.3 0 45.7 0 22.8 0L0 0Z" fill="#953a5e"></path><path d="M0 34L22.8 33.3C45.7 32.7 91.3 31.3 137 32C182.7 32.7 228.3 35.3 274 36.5C319.7 37.7 365.3 37.3 411.2 37C457 36.7 503 36.3 548.8 33.7C594.7 31 640.3 26 686 24C731.7 22 777.3 23 823 24.2C868.7 25.3 914.3 26.7 937.2 27.3L960 28L960 0L937.2 0C914.3 0 868.7 0 823 0C777.3 0 731.7 0 686 0C640.3 0 594.7 0 548.8 0C503 0 457 0 411.2 0C365.3 0 319.7 0 274 0C228.3 0 182.7 0 137 0C91.3 0 45.7 0 22.8 0L0 0Z" fill="#60274c"></path><path d="M0 21L22.8 19.2C45.7 17.3 91.3 13.7 137 13.5C182.7 13.3 228.3 16.7 274 18C319.7 19.3 365.3 18.7 411.2 18.3C457 18 503 18 548.8 18.7C594.7 19.3 640.3 20.7 686 20.5C731.7 20.3 777.3 18.7 823 16.3C868.7 14 914.3 11 937.2 9.5L960 8L960 0L937.2 0C914.3 0 868.7 0 823 0C777.3 0 731.7 0 686 0C640.3 0 594.7 0 548.8 0C503 0 457 0 411.2 0C365.3 0 319.7 0 274 0C228.3 0 182.7 0 137 0C91.3 0 45.7 0 22.8 0L0 0Z" fill="#301532"></path></svg>