<svg id="visual" viewBox="0 0 960 200" width="960" height="200" xmlns="http://www.w3.org/2000/svg" xmlns:xlink="http://www.w3.org/1999/xlink" version="1.1"><path d="M0 49L14.5 52.7C29 56.3 58 63.7 87.2 61.7C116.3 59.7 145.7 48.3 174.8 41C204 33.7 233 30.3 262 33.3C291 36.3 320 45.7 349 51C378 56.3 407 57.7 436.2 56.7C465.3 55.7 494.7 52.3 523.8 52.7C553 53 582 57 611 57.3C640 57.7 669 54.3 698 57.3C727 60.3 756 69.7 785.2 70C814.3 70.3 843.7 61.7 872.8 53.7C902 45.7 931 38.3 945.5 34.7L960 31L960 0L945.5 0C931 0 902 0 872.8 0C843.7 0 814.3 0 785.2 0C756 0 727 0 698 0C669 0 640 0 611 0C582 0 553 0 523.8 0C494.7 0 465.3 0 436.2 0C407 0 378 0 349 0C320 0 291 0 262 0C233 0 204 0 174.8 0C145.7 0 116.3 0 87.2 0C58 0 29 0 14.5 0L0 0Z" fill="#001220"></path><path d="M0 77L14.5 79.3C29 81.7 58 86.3 87.2 83.7C116.3 81 145.7 71 174.8 62.7C204 54.3 233 47.7 262 51.3C291 55 320 69 349 75.3C378 81.7 407 80.3 436.2 78C465.3 75.7 494.7 72.3 523.8 73.3C553 74.3 582 79.7 611 80.7C640 81.7 669 78.3 698 80C727 81.7 756 88.3 785.2 90.3C814.3 92.3 843.7 89.7 872.8 84C902 78.3 931 69.7 945.5 65.3L960 61L960 29L945.5 32.7C931 36.3 902 43.7 872.8 51.7C843.7 59.7 814.3 68.3 785.2 68C756 67.7 727 58.3 698 55.3C669 52.3 640 55.7 611 55.3C582 55 553 51 523.8 50.7C494.7 50.3 465.3 53.7 436.2 54.7C407 55.7 378 54.3 349 49C320 43.7 291 34.3 262 31.3C233 28.3 204 31.7 174.8 39C145.7 46.3 116.3 57.7 87.2 59.7C58 61.7 29 54.3 14.5 50.7L0 47Z" fill="#2c2c4f"></path><path d="M0 97L14.5 100.3C29 103.7 58 110.3 87.2 106.7C116.3 103 145.7 89 174.8 80.3C204 71.7 233 68.3 262 73.7C291 79 320 93 349 101C378 109 407 111 436.2 108C465.3 105 494.7 97 523.8 96C553 95 582 101 611 104.3C640 107.7 669 108.3 698 113C727 117.7 756 126.3 785.2 126C814.3 125.7 843.7 116.3 872.8 109.3C902 102.3 931 97.7 945.5 95.3L960 93L960 59L945.5 63.3C931 67.7 902 76.3 872.8 82C843.7 87.7 814.3 90.3 785.2 88.3C756 86.3 727 79.7 698 78C669 76.3 640 79.7 611 78.7C582 77.7 553 72.3 523.8 71.3C494.7 70.3 465.3 73.7 436.2 76C407 78.3 378 79.7 349 73.3C320 67 291 53 262 49.3C233 45.7 204 52.3 174.8 60.7C145.7 69 116.3 79 87.2 81.7C58 84.3 29 79.7 14.5 77.3L0 75Z" fill="#723f71"></path><path d="M0 141L14.5 146C29 151 58 161 87.2 153.7C116.3 146.3 145.7 121.7 174.8 113.7C204 105.7 233 114.3 262 121.3C291 128.3 320 133.7 349 139.3C378 145 407 151 436.2 146C465.3 141 494.7 125 523.8 124.7C553 124.3 582 139.7 611 146.3C640 153 669 151 698 153.3C727 155.7 756 162.3 785.2 161.7C814.3 161 843.7 153 872.8 144.7C902 136.3 931 127.7 945.5 123.3L960 119L960 91L945.5 93.3C931 95.7 902 100.3 872.8 107.3C843.7 114.3 814.3 123.7 785.2 124C756 124.3 727 115.7 698 111C669 106.3 640 105.7 611 102.3C582 99 553 93 523.8 94C494.7 95 465.3 103 436.2 106C407 109 378 107 349 99C320 91 291 77 262 71.7C233 66.3 204 69.7 174.8 78.3C145.7 87 116.3 101 87.2 104.7C58 108.3 29 101.7 14.5 98.3L0 95Z" fill="#be5079"></path><path d="M0 201L14.5 201C29 201 58 201 87.2 201C116.3 201 145.7 201 174.8 201C204 201 233 201 262 201C291 201 320 201 349 201C378 201 407 201 436.2 201C465.3 201 494.7 201 523.8 201C553 201 582 201 611 201C640 201 669 201 698 201C727 201 756 201 785.2 201C814.3 201 843.7 201 872.8 201C902 201 931 201 945.5 201L960 201L960 117L945.5 121.3C931 125.7 902 134.3 872.8 142.7C843.7 151 814.3 159 785.2 159.7C756 160.3 727 153.7 698 151.3C669 149 640 151 611 144.3C582 137.7 553 122.3 523.8 122.7C494.7 123 465.3 139 436.2 144C407 149 378 143 349 137.3C320 131.7 291 126.3 262 119.3C233 112.3 204 103.7 174.8 111.7C145.7 119.7 116.3 144.3 87.2 151.7C58 159 29 149 14.5 144L0 139Z" fill="#fa7268"></path></svg>