<svg id="visual" viewBox="0 0 960 200" width="960" height="200" xmlns="http://www.w3.org/2000/svg" xmlns:xlink="http://www.w3.org/1999/xlink" version="1.1"><path d="M0 33L14.5 32.3C29 31.7 58 30.3 87.2 29.7C116.3 29 145.7 29 174.8 30.3C204 31.7 233 34.3 262 35.7C291 37 320 37 349 36.7C378 36.3 407 35.7 436.2 34.3C465.3 33 494.7 31 523.8 29.3C553 27.7 582 26.3 611 23.7C640 21 669 17 698 18C727 19 756 25 785.2 29C814.3 33 843.7 35 872.8 32.3C902 29.7 931 22.3 945.5 18.7L960 15L960 0L945.5 0C931 0 902 0 872.8 0C843.7 0 814.3 0 785.2 0C756 0 727 0 698 0C669 0 640 0 611 0C582 0 553 0 523.8 0C494.7 0 465.3 0 436.2 0C407 0 378 0 349 0C320 0 291 0 262 0C233 0 204 0 174.8 0C145.7 0 116.3 0 87.2 0C58 0 29 0 14.5 0L0 0Z" fill="#fa7268"></path><path d="M0 55L14.5 57.7C29 60.3 58 65.7 87.2 67C116.3 68.3 145.7 65.7 174.8 66.7C204 67.7 233 72.3 262 74.3C291 76.3 320 75.7 349 77.3C378 79 407 83 436.2 80C465.3 77 494.7 67 523.8 65C553 63 582 69 611 66.7C640 64.3 669 53.7 698 50.3C727 47 756 51 785.2 56.7C814.3 62.3 843.7 69.7 872.8 71C902 72.3 931 67.7 945.5 65.3L960 63L960 13L945.5 16.7C931 20.3 902 27.7 872.8 30.3C843.7 33 814.3 31 785.2 27C756 23 727 17 698 16C669 15 640 19 611 21.7C582 24.3 553 25.7 523.8 27.3C494.7 29 465.3 31 436.2 32.3C407 33.7 378 34.3 349 34.7C320 35 291 35 262 33.7C233 32.3 204 29.7 174.8 28.3C145.7 27 116.3 27 87.2 27.7C58 28.3 29 29.7 14.5 30.3L0 31Z" fill="#e5685f"></path><path d="M0 111L14.5 112.7C29 114.3 58 117.7 87.2 115.7C116.3 113.7 145.7 106.3 174.8 104.7C204 103 233 107 262 111C291 115 320 119 349 120.7C378 122.3 407 121.7 436.2 116.3C465.3 111 494.7 101 523.8 103.7C553 106.3 582 121.7 611 123C640 124.3 669 111.7 698 111.3C727 111 756 123 785.2 126C814.3 129 843.7 123 872.8 117.7C902 112.3 931 107.7 945.5 105.3L960 103L960 61L945.5 63.3C931 65.7 902 70.3 872.8 69C843.7 67.7 814.3 60.3 785.2 54.7C756 49 727 45 698 48.3C669 51.7 640 62.3 611 64.7C582 67 553 61 523.8 63C494.7 65 465.3 75 436.2 78C407 81 378 77 349 75.3C320 73.7 291 74.3 262 72.3C233 70.3 204 65.7 174.8 64.7C145.7 63.7 116.3 66.3 87.2 65C58 63.7 29 58.3 14.5 55.7L0 53Z" fill="#d05e56"></path><path d="M0 177L14.5 177.7C29 178.3 58 179.7 87.2 178.7C116.3 177.7 145.7 174.3 174.8 175C204 175.7 233 180.3 262 182C291 183.7 320 182.3 349 182.7C378 183 407 185 436.2 186.3C465.3 187.7 494.7 188.3 523.8 185.3C553 182.3 582 175.7 611 172C640 168.3 669 167.7 698 170C727 172.3 756 177.7 785.2 179.3C814.3 181 843.7 179 872.8 176.7C902 174.3 931 171.7 945.5 170.3L960 169L960 101L945.5 103.3C931 105.7 902 110.3 872.8 115.7C843.7 121 814.3 127 785.2 124C756 121 727 109 698 109.3C669 109.7 640 122.3 611 121C582 119.7 553 104.3 523.8 101.7C494.7 99 465.3 109 436.2 114.3C407 119.7 378 120.3 349 118.7C320 117 291 113 262 109C233 105 204 101 174.8 102.7C145.7 104.3 116.3 111.7 87.2 113.7C58 115.7 29 112.3 14.5 110.7L0 109Z" fill="#bc544d"></path><path d="M0 201L14.5 201C29 201 58 201 87.2 201C116.3 201 145.7 201 174.8 201C204 201 233 201 262 201C291 201 320 201 349 201C378 201 407 201 436.2 201C465.3 201 494.7 201 523.8 201C553 201 582 201 611 201C640 201 669 201 698 201C727 201 756 201 785.2 201C814.3 201 843.7 201 872.8 201C902 201 931 201 945.5 201L960 201L960 167L945.5 168.3C931 169.7 902 172.3 872.8 174.7C843.7 177 814.3 179 785.2 177.3C756 175.7 727 170.3 698 168C669 165.7 640 166.3 611 170C582 173.7 553 180.3 523.8 183.3C494.7 186.3 465.3 185.7 436.2 184.3C407 183 378 181 349 180.7C320 180.3 291 181.7 262 180C233 178.3 204 173.7 174.8 173C145.7 172.3 116.3 175.7 87.2 176.7C58 177.7 29 176.3 14.5 175.7L0 175Z" fill="#a84b45"></path></svg>