<svg id="visual" viewBox="0 0 960 200" width="960" height="200" xmlns="http://www.w3.org/2000/svg" xmlns:xlink="http://www.w3.org/1999/xlink" version="1.1"><rect x="0" y="0" width="960" height="200" fill="#FA7268"></rect><path d="M0 89L5.2 89.2C10.3 89.3 20.7 89.7 31 94.3C41.3 99 51.7 108 62 110.5C72.3 113 82.7 109 93 103.7C103.3 98.3 113.7 91.7 124 93.5C134.3 95.3 144.7 105.7 155 105.2C165.3 104.7 175.7 93.3 186 88.7C196.3 84 206.7 86 217 91.3C227.3 96.7 237.7 105.3 248 107.2C258.3 109 268.7 104 279 98.3C289.3 92.7 299.7 86.3 310 86C320.3 85.7 330.7 91.3 341 92.5C351.3 93.7 361.7 90.3 372 88.7C382.3 87 392.7 87 403 86.8C413.3 86.7 423.7 86.3 434 87.7C444.3 89 454.7 92 464.8 94C475 96 485 97 495.2 99.7C505.3 102.3 515.7 106.7 526 109.2C536.3 111.7 546.7 112.3 557 111.7C567.3 111 577.7 109 588 109.8C598.3 110.7 608.7 114.3 619 113.2C629.3 112 639.7 106 650 102.5C660.3 99 670.7 98 681 96C691.3 94 701.7 91 712 90.2C722.3 89.3 732.7 90.7 743 95.2C753.3 99.7 763.7 107.3 774 111C784.3 114.7 794.7 114.3 805 113.3C815.3 112.3 825.7 110.7 836 105.2C846.3 99.7 856.7 90.3 867 86C877.3 81.7 887.7 82.3 898 86.7C908.3 91 918.7 99 929 102.8C939.3 106.7 949.7 106.3 954.8 106.2L960 106L960 201L954.8 201C949.7 201 939.3 201 929 201C918.7 201 908.3 201 898 201C887.7 201 877.3 201 867 201C856.7 201 846.3 201 836 201C825.7 201 815.3 201 805 201C794.7 201 784.3 201 774 201C763.7 201 753.3 201 743 201C732.7 201 722.3 201 712 201C701.7 201 691.3 201 681 201C670.7 201 660.3 201 650 201C639.7 201 629.3 201 619 201C608.7 201 598.3 201 588 201C577.7 201 567.3 201 557 201C546.7 201 536.3 201 526 201C515.7 201 505.3 201 495.2 201C485 201 475 201 464.8 201C454.7 201 444.3 201 434 201C423.7 201 413.3 201 403 201C392.7 201 382.3 201 372 201C361.7 201 351.3 201 341 201C330.7 201 320.3 201 310 201C299.7 201 289.3 201 279 201C268.7 201 258.3 201 248 201C237.7 201 227.3 201 217 201C206.7 201 196.3 201 186 201C175.7 201 165.3 201 155 201C144.7 201 134.3 201 124 201C113.7 201 103.3 201 93 201C82.7 201 72.3 201 62 201C51.7 201 41.3 201 31 201C20.7 201 10.3 201 5.2 201L0 201Z" fill="#a84b45" stroke-linecap="round" stroke-linejoin="miter"></path></svg>