<svg id="visual" viewBox="0 0 960 200" width="960" height="200" xmlns="http://www.w3.org/2000/svg" xmlns:xlink="http://www.w3.org/1999/xlink" version="1.1"><rect x="0" y="0" width="960" height="200" fill="#a84b45"></rect><path d="M0 36L56 37L113 54L169 56L226 45L282 83L339 68L395 48L452 37L508 58L565 59L621 41L678 85L734 41L791 45L847 48L904 50L960 28L960 201L904 201L847 201L791 201L734 201L678 201L621 201L565 201L508 201L452 201L395 201L339 201L282 201L226 201L169 201L113 201L56 201L0 201Z" fill="#a84b45"></path><path d="M0 94L56 55L113 43L169 55L226 89L282 96L339 87L395 62L452 84L508 75L565 68L621 89L678 51L734 46L791 55L847 49L904 55L960 65L960 201L904 201L847 201L791 201L734 201L678 201L621 201L565 201L508 201L452 201L395 201L339 201L282 201L226 201L169 201L113 201L56 201L0 201Z" fill="#9b414c"></path><path d="M0 90L56 95L113 94L169 84L226 59L282 59L339 82L395 96L452 79L508 77L565 74L621 59L678 89L734 99L791 83L847 73L904 89L960 73L960 201L904 201L847 201L791 201L734 201L678 201L621 201L565 201L508 201L452 201L395 201L339 201L282 201L226 201L169 201L113 201L56 201L0 201Z" fill="#8b3951"></path><path d="M0 114L56 92L113 83L169 102L226 101L282 90L339 95L395 96L452 73L508 97L565 114L621 90L678 86L734 103L791 103L847 86L904 117L960 74L960 201L904 201L847 201L791 201L734 201L678 201L621 201L565 201L508 201L452 201L395 201L339 201L282 201L226 201L169 201L113 201L56 201L0 201Z" fill="#793454"></path><path d="M0 87L56 94L113 105L169 99L226 117L282 116L339 87L395 91L452 91L508 90L565 127L621 100L678 120L734 108L791 106L847 94L904 113L960 105L960 201L904 201L847 201L791 201L734 201L678 201L621 201L565 201L508 201L452 201L395 201L339 201L282 201L226 201L169 201L113 201L56 201L0 201Z" fill="#653054"></path><path d="M0 134L56 118L113 136L169 131L226 130L282 104L339 135L395 119L452 125L508 136L565 110L621 114L678 135L734 120L791 106L847 124L904 130L960 101L960 201L904 201L847 201L791 201L734 201L678 201L621 201L565 201L508 201L452 201L395 201L339 201L282 201L226 201L169 201L113 201L56 201L0 201Z" fill="#512d51"></path><path d="M0 124L56 143L113 134L169 134L226 118L282 142L339 147L395 134L452 145L508 141L565 124L621 143L678 119L734 148L791 127L847 132L904 123L960 126L960 201L904 201L847 201L791 201L734 201L678 201L621 201L565 201L508 201L452 201L395 201L339 201L282 201L226 201L169 201L113 201L56 201L0 201Z" fill="#3d294b"></path><path d="M0 140L56 145L113 140L169 144L226 143L282 136L339 152L395 139L452 148L508 154L565 153L621 133L678 143L734 153L791 138L847 137L904 149L960 144L960 201L904 201L847 201L791 201L734 201L678 201L621 201L565 201L508 201L452 201L395 201L339 201L282 201L226 201L169 201L113 201L56 201L0 201Z" fill="#2a2543"></path><path d="M0 163L56 168L113 168L169 156L226 149L282 167L339 154L395 149L452 165L508 151L565 148L621 148L678 166L734 149L791 168L847 146L904 161L960 146L960 201L904 201L847 201L791 201L734 201L678 201L621 201L565 201L508 201L452 201L395 201L339 201L282 201L226 201L169 201L113 201L56 201L0 201Z" fill="#1a1f38"></path><path d="M0 161L56 164L113 168L169 161L226 166L282 176L339 169L395 166L452 176L508 180L565 172L621 162L678 173L734 167L791 179L847 171L904 176L960 180L960 201L904 201L847 201L791 201L734 201L678 201L621 201L565 201L508 201L452 201L395 201L339 201L282 201L226 201L169 201L113 201L56 201L0 201Z" fill="#0c192c"></path><path d="M0 183L56 174L113 184L169 189L226 188L282 180L339 185L395 182L452 178L508 183L565 180L621 184L678 179L734 179L791 186L847 189L904 178L960 177L960 201L904 201L847 201L791 201L734 201L678 201L621 201L565 201L508 201L452 201L395 201L339 201L282 201L226 201L169 201L113 201L56 201L0 201Z" fill="#001220"></path></svg>